<svg xmlns="http://www.w3.org/2000/svg" version="1.1" xmlns:xlink="http://www.w3.org/1999/xlink" width="512"
    height="512" x="0" y="0" viewBox="0 0 53 53" style="enable-background:new 0 0 512 512" xml:space="preserve"
    class="">
    <g>
        <path fill="#2d2c2b"
            d="M35.484 26.839c3.142 8.836-1.474 18.546-10.31 21.687-5.67 2.016-11.698.838-16.12-2.598a16.885 16.885 0 0 1-5.568-7.712C.344 29.379 4.96 19.67 13.796 16.528a16.902 16.902 0 0 1 8.945-.669 17.072 17.072 0 0 1 5.159 1.92 16.912 16.912 0 0 1 7.584 9.06z"
            opacity="1" data-original="#2d2c2b"></path>
        <path fill="#383736"
            d="M28.766 19.794c3.141 8.836-1.475 18.546-10.311 21.688A16.94 16.94 0 0 1 4.35 40.23a17.174 17.174 0 0 1-1.684-5.34c-1.107-7.826 3.395-15.611 11.13-18.362 1.645-.584 3.32-.9 4.978-.97a16.848 16.848 0 0 1 3.967.301 17.072 17.072 0 0 1 5.159 1.92c.327.644.617 1.316.866 2.015z"
            opacity="1" data-original="#383736"></path>
        <path fill="#434240"
            d="M18.774 15.558c1.107 7.825-3.395 15.61-11.13 18.36-1.645.586-3.32.902-4.978.971-1.107-7.825 3.395-15.61 11.13-18.36 1.645-.585 3.32-.902 4.978-.971z"
            opacity="1" data-original="#434240" class=""></path>
        <path fill="#2d2c2b"
            d="m30.959 18.512-.557 2.577c-.357 1.653-3.041 2.475-5.997 1.836-2.954-.638-5.06-2.495-4.703-4.147l.557-2.577c-.357 1.652 1.749 3.509 4.703 4.147 2.955.638 5.64-.184 5.997-1.836z"
            opacity="1" data-original="#2d2c2b"></path>
        <g fill="#21201f">
            <path d="m20.259 16.2-.557 2.578c-.139.642.096 1.315.606 1.936l.557-2.578c-.51-.62-.745-1.293-.606-1.935z"
                fill="#21201f" opacity="1" data-original="#21201f"></path>
            <path
                d="m20.865 18.136-.557 2.578c.548.665 1.415 1.27 2.484 1.711l.557-2.577c-1.07-.441-1.936-1.046-2.484-1.712zM26.057 20.52l-.556 2.578c1.178.116 2.266-.003 3.12-.313l.556-2.578c-.854.31-1.941.43-3.12.313z"
                fill="#21201f" opacity="1" data-original="#21201f"></path>
        </g>
        <path fill="#2d2c2b"
            d="m29.177 20.207-.557 2.578c.955-.347 1.617-.932 1.782-1.696l.557-2.577c-.165.763-.827 1.349-1.782 1.695zM24.962 20.348a9.492 9.492 0 0 1-1.613-.5l-.557 2.577a9.715 9.715 0 0 0 2.708.672l.557-2.577a9.714 9.714 0 0 1-1.095-.172z"
            opacity="1" data-original="#2d2c2b"></path>
        <path fill="#434240"
            d="M26.255 14.364c2.955.639 5.061 2.496 4.704 4.148-.357 1.652-3.042 2.474-5.997 1.836-2.954-.638-5.06-2.495-4.703-4.147.357-1.653 3.041-2.475 5.996-1.837z"
            opacity="1" data-original="#434240" class=""></path>
        <path fill="#21201f"
            d="M25.963 15.714c-1.62-.35-3.094.101-3.29 1.008a.961.961 0 0 0-.02.207c.425-.028.893.005 1.374.109 1.499.323 2.599 1.219 2.602 2.068 1.008-.066 1.778-.478 1.915-1.116.196-.906-.96-1.925-2.58-2.276z"
            opacity="1" data-original="#21201f"></path>
        <path fill="#2d2c2b"
            d="M26.629 19.106a4.908 4.908 0 0 1-1.336-.1l-.04-.009c-.714-.154-1.338-.438-1.796-.786a2.89 2.89 0 0 1-.173-.142c-.398-.35-.63-.75-.632-1.14a4.909 4.909 0 0 1 1.374.109l.033.007c.71.158 1.328.443 1.781.792.077.059.148.12.215.182.361.336.572.716.574 1.087z"
            opacity="1" data-original="#2d2c2b"></path>
        <path fill="#c4c2c0"
            d="M43.542 13.635a2.314 2.314 0 0 1-1.16 1.473.28.28 0 0 1-.305-.025 19.578 19.578 0 0 0-.964-.699 15.434 15.434 0 0 0-1.835-1.078c-2.225-1.1-4.373-1.395-6.412-.875-3.586.913-5.68 3.603-6.811 5.588-.136.238-.258.467-.368.68-.062.121-.118.237-.172.347a3.769 3.769 0 0 1-.222-.04l-.04-.009a5.366 5.366 0 0 1-.508-.136 4.326 4.326 0 0 1-1.288-.65 17.935 17.935 0 0 1 .602-1.166c1.297-2.314 3.816-5.626 8.262-6.759 1.9-.484 3.847-.421 5.823.184 1.044.32 2.096.791 3.154 1.413.713.419 1.427.905 2.144 1.46a.278.278 0 0 1 .1.292z"
            opacity="1" data-original="#c4c2c0"></path>
        <path fill="#d6d4d2"
            d="M43.542 13.635a2.314 2.314 0 0 1-1.16 1.473.28.28 0 0 1-.305-.025 19.578 19.578 0 0 0-.964-.699 15.434 15.434 0 0 0-1.835-1.078c-2.225-1.1-4.373-1.395-6.412-.875-3.586.913-5.68 3.603-6.811 5.588-.136.238-.258.467-.368.68-.062.121-.118.237-.172.347a3.769 3.769 0 0 1-.222-.04l-.04-.009a5.366 5.366 0 0 1-.508-.136l.07-.14c.124-.25.265-.522.427-.81 1.297-2.313 3.816-5.626 8.262-6.758 1.901-.484 3.847-.422 5.823.184 1.044.32 2.096.791 3.155 1.413.333.195.667.406 1.002.632.058.07.082.164.058.253z"
            opacity="1" data-original="#d6d4d2"></path>
        <path fill="#f25a5a" d="m50.5 12.015-7.582 2.1-.944 7.81-2.102-7.581-7.81-.944 7.581-2.102.946-7.81 2.1 7.582z"
            opacity="1" data-original="#f25a5a"></path>
        <path fill="#ffd651"
            d="m46.72 17.387-5.313-3.009-4.805 3.768 3.007-5.314-3.768-4.805 5.314 3.008 4.805-3.768-3.007 5.314z"
            opacity="1" data-original="#ffd651"></path>
        <path fill="#ffffff"
            d="M18.688 28.017c-.883.264-1.678.777-2.349 1.43-.618.618-1.112 1.448-1.466 2.314-.053.335-.459.335-.547 0a5.912 5.912 0 0 0-3.78-3.744c-.3-.142-.3-.53 0-.6.883-.284 1.713-.849 2.35-1.467a5.524 5.524 0 0 0 1.43-2.349c.088-.282.494-.282.547 0 .354.919.848 1.713 1.466 2.35.671.617 1.466 1.182 2.35 1.465.335.07.335.46 0 .6z"
            opacity="1" data-original="#ffffff"></path>
    </g>
</svg>