<svg xmlns="http://www.w3.org/2000/svg" version="1.1" xmlns:xlink="http://www.w3.org/1999/xlink" width="170"
    height="170" x="0" y="0" viewBox="0 0 510 510" style="enable-background:new 0 0 512 512" xml:space="preserve"
    class="">
    <g>
        <linearGradient id="a">
            <stop offset="0" stop-color="#bce097"></stop>
            <stop offset="1" stop-color="#7dc03a"></stop>
        </linearGradient>
        <linearGradient xlink:href="#a" id="c" x1="128.209" x2="436.86" y1="174.478" y2="483.129"
            gradientUnits="userSpaceOnUse"></linearGradient>
        <linearGradient xlink:href="#a" id="d" x1="80.909" x2="159.234" y1="347.93" y2="347.93"
            gradientTransform="matrix(-1 0 0 1 510 0)" gradientUnits="userSpaceOnUse"></linearGradient>
        <linearGradient xlink:href="#a" id="e" x1="350.766" x2="429.091" y1="347.93" y2="347.93"
            gradientTransform="matrix(-1 0 0 1 510 0)" gradientUnits="userSpaceOnUse"></linearGradient>
        <linearGradient xlink:href="#a" id="f" x1="182.352" x2="239.783" y1="347.93" y2="347.93"
            gradientTransform="matrix(-1 0 0 1 510 0)" gradientUnits="userSpaceOnUse"></linearGradient>
        <linearGradient xlink:href="#a" id="g" x1="270.217" x2="327.648" y1="347.93" y2="347.93"
            gradientTransform="matrix(-1 0 0 1 510 0)" gradientUnits="userSpaceOnUse"></linearGradient>
        <linearGradient id="b">
            <stop offset="0" stop-color="#8cc951" stop-opacity="0"></stop>
            <stop offset="1" stop-color="#3e6e66"></stop>
        </linearGradient>
        <linearGradient xlink:href="#b" id="h" x1="255" x2="255" y1="424.756" y2="510.026"
            gradientUnits="userSpaceOnUse"></linearGradient>
        <linearGradient xlink:href="#b" id="i" x1="255" x2="255" y1="337" y2="157.989" gradientUnits="userSpaceOnUse">
        </linearGradient>
        <linearGradient xlink:href="#b" id="j" x1="412.853" x2="375.353" y1="324.386" y2="177.886"
            gradientUnits="userSpaceOnUse"></linearGradient>
        <linearGradient id="k" x1="255" x2="255" y1="142" y2="218.026" gradientUnits="userSpaceOnUse">
            <stop offset="0" stop-color="#e38523"></stop>
            <stop offset=".73" stop-color="#db4735"></stop>
            <stop offset="1" stop-color="#d82f3c"></stop>
        </linearGradient>
        <linearGradient id="l" x1="369.69" x2="323.471" y1="157.31" y2="111.09" gradientUnits="userSpaceOnUse">
            <stop offset="0" stop-color="#d52c1c" stop-opacity="0"></stop>
            <stop offset=".337" stop-color="#c82c21" stop-opacity=".337"></stop>
            <stop offset=".956" stop-color="#a72b30" stop-opacity=".956"></stop>
            <stop offset="1" stop-color="#a42b31"></stop>
        </linearGradient>
        <linearGradient id="m" x1="251.372" x2="272.244" y1="61.325" y2="61.325"
            gradientTransform="rotate(45 255.05 166.267)" gradientUnits="userSpaceOnUse">
            <stop offset="0" stop-color="#f6df7d"></stop>
            <stop offset="1" stop-color="#eab044"></stop>
        </linearGradient>
        <path fill="url(#c)"
            d="M375.7 510H134.3c-30.862 0-57.486-21.663-63.761-51.88L14 185.86h482l-56.539 272.26C433.186 488.337 406.562 510 375.7 510z"
            opacity="1" data-original="url(#c)"></path>
        <path fill="url(#d)"
            d="M374.477 486.145c11.669 0 21.829-8.626 23.435-20.51l30.962-229.066c1.752-12.96-7.334-24.886-20.294-26.637-12.954-1.754-24.886 7.334-26.637 20.294l-30.962 229.066c-1.752 12.96 7.334 24.886 20.294 26.637a23.99 23.99 0 0 0 3.202.216z"
            opacity="1" data-original="url(#d)"></path>
        <path fill="url(#e)"
            d="M135.523 486.145c1.057 0 2.125-.07 3.201-.216 12.96-1.752 22.046-13.678 20.294-26.637l-30.962-229.066c-1.75-12.959-13.677-22.043-26.637-20.294-12.96 1.752-22.046 13.678-20.294 26.637l30.962 229.066c1.605 11.883 11.768 20.51 23.436 20.51z"
            opacity="1" data-original="url(#e)"></path>
        <path fill="url(#f)"
            d="M293.914 486.143c12.599 0 23.08-9.928 23.639-22.639l10.072-229.066c.574-13.065-9.552-24.122-22.616-24.696-13.076-.59-24.122 9.551-24.697 22.616L270.24 461.423c-.574 13.065 9.552 24.122 22.616 24.696.354.016.708.024 1.058.024z"
            opacity="1" data-original="url(#f)"></path>
        <path fill="url(#g)"
            d="M216.086 486.143c.351 0 .703-.008 1.058-.024 13.065-.574 23.191-11.631 22.616-24.696l-10.072-229.066c-.574-13.065-11.642-23.195-24.696-22.616-13.065.574-23.191 11.631-22.616 24.696l10.072 229.066c.558 12.71 11.04 22.64 23.638 22.64z"
            opacity="1" data-original="url(#g)"></path>
        <path fill="url(#h)"
            d="m59.275 403.879 11.264 54.241C76.814 488.337 103.438 510 134.3 510h241.4c30.862 0 57.486-21.663 63.761-51.88l11.264-54.241z"
            opacity="1" data-original="url(#h)"></path>
        <path fill="url(#i)" d="m14 185.86 1.871 9.011L331 510h44.7c30.862 0 57.486-21.663 63.761-51.88L496 185.86z"
            opacity="1" data-original="url(#i)"></path>
        <path fill="url(#j)" d="M496 185.86H261.45v10.4l192.429 192.43z" opacity="1" data-original="url(#j)"></path>
        <path fill="url(#k)"
            d="M485.963 136.346H24.037C10.762 136.346 0 147.108 0 160.383v11.834c0 13.275 10.762 24.037 24.037 24.037h461.925c13.275 0 24.037-10.762 24.037-24.037v-11.834c.001-13.275-10.761-24.037-24.036-24.037z"
            opacity="1" data-original="url(#k)"></path>
        <path fill="url(#l)"
            d="M510 160.38v11.84c0 13.27-10.76 24.04-24.04 24.04H261.45l-18.43-18.43 41.48-41.48h201.46c13.28 0 24.04 10.76 24.04 24.03z"
            opacity="1" data-original="url(#l)"></path>
        <path fill="url(#m)"
            d="M414.984 5.861c-7.814-7.814-20.484-7.814-28.298 0L243.018 149.528c-7.814 7.814-7.814 20.484 0 28.298 7.814 7.814 20.484 7.814 28.298 0L414.984 34.159c7.814-7.814 7.814-20.484 0-28.298z"
            opacity="1" data-original="url(#m)"></path>
    </g>
</svg>