<svg xmlns="http://www.w3.org/2000/svg" version="1.1" xmlns:xlink="http://www.w3.org/1999/xlink" width="512"
    height="512" x="0" y="0" viewBox="0 0 511 512" style="enable-background:new 0 0 512 512" xml:space="preserve"
    class="">
    <g transform="matrix(1,0,0,1,35,0)">
        <radialGradient id="b" cx="47.701" cy="128.014" r="451.18" gradientUnits="userSpaceOnUse">
            <stop offset="0" stop-color="#ff4b3e"></stop>
            <stop offset=".446" stop-color="#fd4a3d"></stop>
            <stop offset=".607" stop-color="#f64939"></stop>
            <stop offset=".722" stop-color="#eb4533"></stop>
            <stop offset=".814" stop-color="#da412a"></stop>
            <stop offset=".893" stop-color="#c43a1f"></stop>
            <stop offset=".963" stop-color="#a93311"></stop>
            <stop offset="1" stop-color="#972e07"></stop>
        </radialGradient>
        <linearGradient id="c" x1="314.526" x2="289.803" y1="180.089" y2="94.169" gradientUnits="userSpaceOnUse">
            <stop offset="0" stop-color="#ff1d25" stop-opacity="0"></stop>
            <stop offset="1" stop-color="#ff1d25"></stop>
        </linearGradient>
        <linearGradient id="a">
            <stop offset="0" stop-color="#972e07" stop-opacity="0"></stop>
            <stop offset="1" stop-color="#582707"></stop>
        </linearGradient>
        <linearGradient xlink:href="#a" id="d" x1="338.069" x2="253.039" y1="206.968" y2="57.937"
            gradientUnits="userSpaceOnUse"></linearGradient>
        <linearGradient id="e" x1="497.663" x2="577.752" y1="-247.156" y2="-152.282"
            gradientTransform="rotate(-12.614 1843.72 945.886) scale(1.00396)" gradientUnits="userSpaceOnUse">
            <stop offset="0" stop-color="#acc130"></stop>
            <stop offset="1" stop-color="#97a03b"></stop>
        </linearGradient>
        <linearGradient id="f" x1="546.554" x2="473.246" y1="-200.064" y2="-265.364"
            gradientTransform="rotate(-12.614 1843.72 945.886) scale(1.00396)" gradientUnits="userSpaceOnUse">
            <stop offset="0" stop-color="#97a03b" stop-opacity="0"></stop>
            <stop offset="1" stop-color="#575c55"></stop>
        </linearGradient>
        <linearGradient id="g" x1="481.203" x2="500.301" y1="-243.516" y2="-218.873"
            gradientTransform="rotate(-12.614 1843.72 945.886) scale(1.00396)" gradientUnits="userSpaceOnUse">
            <stop offset="0" stop-color="#97a03b"></stop>
            <stop offset="1" stop-color="#6c7d47"></stop>
        </linearGradient>
        <linearGradient id="h" x1="153.845" x2="229.235" y1="101.15" y2="101.15" gradientUnits="userSpaceOnUse">
            <stop offset="0" stop-color="#c08552"></stop>
            <stop offset="1" stop-color="#895738"></stop>
        </linearGradient>
        <linearGradient xlink:href="#a" id="i" x1="218.477" x2="218.477" y1="439.014" y2="610.23"
            gradientUnits="userSpaceOnUse"></linearGradient>
        <linearGradient xlink:href="#a" id="j" x1="301.636" x2="216.094" y1="260.977" y2="76.055"
            gradientUnits="userSpaceOnUse"></linearGradient>
        <linearGradient xlink:href="#a" id="k" x1="217.806" x2="217.806" y1="146.836" y2="194.262"
            gradientUnits="userSpaceOnUse"></linearGradient>
        <linearGradient id="l" x1="121.57" x2="-110.023" y1="252.255" y2="96.153" gradientUnits="userSpaceOnUse">
            <stop offset=".001" stop-color="#e7eeed" stop-opacity="0"></stop>
            <stop offset=".773" stop-color="#f9fbfa" stop-opacity=".773"></stop>
            <stop offset="1" stop-color="#fff"></stop>
        </linearGradient>
        <path fill="url(#b)"
            d="M292.117 117.285c-28.125 6.055-54.492 30.93-73.64 30.93-19.149 0-45.52-24.875-73.641-30.93C85.18 109.48.5 151.16.5 279.297.5 407.43 93.285 512 133.055 512c44.183 0 50.074-20.621 85.422-20.621 35.347 0 41.238 20.621 85.421 20.621 39.77 0 132.555-104.57 132.555-232.703 0-128.137-84.68-169.817-144.336-162.012zm0 0"
            opacity="1" data-original="url(#b)" class=""></path>
        <path fill="url(#c)"
            d="M322.504 117.54c-10.473-1.478-20.758-1.517-30.387-.255-28.12 6.055-54.492 30.93-73.64 30.93-.485 0-.98-.028-1.477-.059v31.184l26.09 4.863 179.562 33.48zm0 0"
            opacity="1" data-original="url(#c)"></path>
        <path fill="url(#d)"
            d="M292.117 117.285c-28.125 6.055-54.492 30.93-73.64 30.93-.98 0-1.985-.082-3.004-.207 4.226 10.105 8.586 17.25 10.14 19.672-.035.156-.078.312-.117.472l1.43.868 195.972 195.882c8.399-26.52 13.555-55.41 13.555-85.605 0-128.137-84.68-169.817-144.336-162.012zm0 0"
            opacity="1" data-original="url(#d)"></path>
        <path fill="url(#e)"
            d="M226.21 168.586S136.263 37.312 334.82.266c8.285-1.543 16.29 3.777 18.172 11.992 9.055 39.5 20 147.242-126.781 156.328zm0 0"
            opacity="1" data-original="url(#e)" class=""></path>
        <path fill="url(#f)"
            d="M352.992 12.258a15.767 15.767 0 0 0-7.785-10.313c-65.785 71.735-118.996 166.64-118.996 166.64C372.992 159.5 362.047 51.759 352.992 12.259zm0 0"
            opacity="1" data-original="url(#f)"></path>
        <path fill="url(#g)"
            d="M320.215 60.91c-1.535.547-3.113.985-4.668 1.434-1.55.457-3.094.91-4.656 1.277-1.555.402-3.176.578-4.77.785-1.594.196-3.09.637-4.535 1.309-1.43.691-2.832 1.445-4.238 2.387 1.168-1.872 2.336-3.739 3.5-5.614l5.812-9.078c1.926-3.043 4.016-5.937 5.988-8.95 4.043-5.94 8.282-11.687 12.93-17.167l-1.133-1.227-4.152 3.579-2.09 1.804c-.68.617-1.308 1.27-1.965 1.903-2.55 2.593-5.254 5.113-7.664 7.828-5.008 5.316-9.719 10.86-14.472 16.386-.887 1.086-1.774 2.176-2.66 3.262.003-1.168-.083-2.328-.352-3.488-.36-1.563-.754-3.149-.914-4.742-.196-1.598-.305-3.2-.414-4.813-.117-1.613-.254-3.246-.27-4.875-.191-3.285-.07-6.57-.047-9.96l-.898-.223a63.488 63.488 0 0 0-3.656 9.593c-.5 1.653-.883 3.328-1.286 5.02-.312 1.695-.628 3.402-.851 5.12-.238 1.72-.582 3.454-.844 5.204-.226 1.75-.156 3.504.281 5.215.09.336.188.672.29 1.008 1.113 3.636.308 7.593-2.032 10.59l-.043.058c-4.078 5.219-8.027 10.512-12.011 15.793-.036-1.64-.207-3.187-.45-4.719a15.094 15.094 0 0 0-1.511-4.472c-.739-1.422-1.52-2.856-2.07-4.364-.59-1.496-1.094-3.02-1.606-4.554-.516-1.535-1.055-3.078-1.48-4.653-1.008-3.129-1.715-6.343-2.536-9.629l-.93.008a63.831 63.831 0 0 0-1.14 10.203c-.067 1.723-.016 3.442.016 5.18.12 1.719.242 3.453.457 5.172.199 1.727.3 3.488.484 5.25.219 1.746.726 3.43 1.578 4.98.387.676.8 1.348 1.25 2.004 2.203 3.184 1.953 7.465-.414 10.528-2.035 2.629-4.082 5.254-6.098 7.894a140.907 140.907 0 0 0-7.183 10.352 35.472 35.472 0 0 0-.426-4.098 14.998 14.998 0 0 0-1.508-4.476c-.742-1.422-1.52-2.856-2.074-4.364-.59-1.492-1.094-3.02-1.606-4.554-.515-1.532-1.054-3.079-1.48-4.649-1.008-3.133-1.715-6.347-2.535-9.633l-.93.008a63.432 63.432 0 0 0-1.137 10.203c-.07 1.723-.02 3.446.016 5.18.117 1.719.238 3.453.453 5.176.2 1.722.3 3.484.485 5.246.222 1.75.726 3.433 1.582 4.98.863 1.528 1.87 3.012 3.144 4.344 1.457 1.527 1.832 3.777.863 5.652-2.507 4.856-6.972 13.668-9.023 18.52-2.805 6.773-5.375 13.691-7.09 21.11l1.43.863c5.793-4.907 10.851-10.246 15.672-15.723a258.219 258.219 0 0 0 13.816-17.254c1.383-1.871 3.828-2.46 5.98-1.582 1.586.648 3.215 1.043 4.836 1.309 1.747.261 3.5.156 5.22-.243 1.714-.437 3.402-.953 5.09-1.363 1.687-.394 3.355-.879 5.01-1.363 1.641-.567 3.274-1.117 4.864-1.777a63.566 63.566 0 0 0 9.18-4.602l-.313-.871c-3.367.367-6.625.812-9.914.953-1.62.145-3.258.172-4.875.223-1.617.05-3.222.105-4.828.07-1.605 0-3.223-.234-4.812-.438a15.049 15.049 0 0 0-4.72.133c-1.695.34-3.386.778-5.132 1.422a170.445 170.445 0 0 0 5.8-9.734 781.686 781.686 0 0 1 5.169-9.348c1.86-3.324 5.636-5.183 9.367-4.41 1.824.379 3.687.484 5.371.758 1.75.265 3.504.16 5.219-.242 1.719-.438 3.406-.95 5.094-1.36 1.687-.394 3.355-.883 5.007-1.363 1.641-.57 3.274-1.117 4.868-1.781a63.747 63.747 0 0 0 9.18-4.598l-.317-.875c-3.367.367-6.625.816-9.91.957-1.625.145-3.262.172-4.88.219-1.613.05-3.222.105-4.827.07-1.606.004-3.22-.234-4.813-.433a15.173 15.173 0 0 0-4.719.128c-2.988.598-5.957 1.48-9.257 3.375 3.71-6.144 7.378-12.335 11.183-18.418l.14-.238c2.231-3.754 6.329-6.129 10.684-5.87 1.23.073 2.45.03 3.645-.079 1.758-.184 3.43-.723 4.992-1.54 1.55-.855 3.059-1.773 4.586-2.593 1.54-.805 3.031-1.691 4.512-2.574 1.445-.961 2.89-1.898 4.265-2.938a63.924 63.924 0 0 0 7.735-6.75l-.52-.77c-3.172 1.2-6.215 2.45-9.36 3.407zm0 0"
            opacity="1" data-original="url(#g)"></path>
        <path fill="url(#h)"
            d="M229.234 180.672c-3.843.324-7.804.5-11.836.5-2.847 0-5.636-.082-8.386-.258-.34-19.535-2.48-43.508-8.926-67.48-3.832-14.278-9.195-28.57-16.625-41.934-12.566-22.582-25.281-31.941-25.414-32.035-4.504-3.262-5.555-9.559-2.336-14.09 3.238-4.516 9.48-5.61 14.023-2.414 1.848 1.297 35.055 25.457 51.047 89.434 4.785 19.078 8.024 41.675 8.453 68.277zm0 0"
            opacity="1" data-original="url(#h)" class=""></path>
        <path fill="url(#i)"
            d="M21.191 384.996C50.887 460.27 105.082 512 133.055 512c44.183 0 50.074-20.621 85.422-20.621 35.347 0 41.238 20.621 85.421 20.621 27.973 0 82.168-51.73 111.864-127.004zm0 0"
            opacity="1" data-original="url(#i)"></path>
        <path fill="url(#j)"
            d="M296.629 156.613c-2.91 2.168-5.899 4.004-8.965 5.625-3.125 1.543-6.258 2.946-9.484 4.125-6.422 2.403-13.051 4.121-19.727 5.48-13.367 2.696-27.004 3.833-40.644 3.845-13.614-.051-27.293-1.16-40.649-3.852-6.691-1.328-13.281-3.125-19.715-5.5-3.254-1.133-6.347-2.594-9.492-4.11-1.508-.835-3.09-1.624-4.535-2.609-1.563-.867-2.918-1.976-4.434-3.004 2.024 3.492 4.684 6.625 7.688 9.43l129.723 129.719c3.042 3.308 6.609 6.207 10.355 8.707 6.172 4.125 12.934 7.324 19.902 9.781 13.993 4.895 28.739 7.055 43.47 7.082 14.698-.023 29.495-2.215 43.464-7.11 6.957-2.495 13.738-5.609 19.902-9.753 6.121-4.125 11.813-9.239 15.453-15.54zm0 0"
            opacity="1" data-original="url(#j)"></path>
        <path fill="url(#k)"
            d="M296.629 156.613c-3.645 6.305-9.332 11.414-15.453 15.543-6.168 4.14-12.95 7.254-19.906 9.75-13.97 4.899-28.762 7.09-43.461 7.11-14.73-.028-29.48-2.188-43.473-7.082-6.969-2.454-13.73-5.657-19.902-9.778-6.137-4.094-11.805-9.25-15.45-15.543 1.516 1.028 2.871 2.137 4.434 3.004 1.445.985 3.027 1.774 4.535 2.61 3.145 1.515 6.238 2.976 9.492 4.109 6.434 2.375 13.024 4.172 19.715 5.5 13.356 2.691 27.035 3.8 40.649 3.851 13.64-.011 27.277-1.148 40.644-3.843 6.676-1.36 13.305-3.078 19.727-5.48 3.226-1.18 6.36-2.583 9.484-4.126 3.066-1.62 6.055-3.457 8.965-5.625zm0 0"
            opacity="1" data-original="url(#k)"></path>
        <path fill="url(#l)"
            d="M256.844 264.047c0-73.625-52.73-133.313-117.778-133.313S21.29 190.422 21.29 264.047c0 73.629 52.73 133.312 117.777 133.312s117.778-59.683 117.778-133.312zm0 0"
            opacity="1" data-original="url(#l)" class=""></path>
    </g>
</svg>