<svg xmlns="http://www.w3.org/2000/svg" version="1.1" xmlns:xlink="http://www.w3.org/1999/xlink" width="512"
    height="512" x="0" y="0" viewBox="0 0 512 512" style="enable-background:new 0 0 512 512" xml:space="preserve"
    class="">
    <g>
        <linearGradient id="a">
            <stop offset="0" stop-color="#fac600"></stop>
            <stop offset=".263" stop-color="#fac204"></stop>
            <stop offset=".535" stop-color="#fbb810"></stop>
            <stop offset=".81" stop-color="#fca625"></stop>
            <stop offset="1" stop-color="#fe9738"></stop>
        </linearGradient>
        <linearGradient xlink:href="#a" id="h" x1="-27.669" x2="77.879" y1="-6.418" y2="-111.966"
            gradientTransform="scale(1 -1) rotate(65.48 497.527 69.872)" gradientUnits="userSpaceOnUse">
        </linearGradient>
        <linearGradient id="b">
            <stop offset="0" stop-color="#fd5426" stop-opacity="0"></stop>
            <stop offset=".121" stop-color="#fd5426" stop-opacity=".016"></stop>
            <stop offset=".246" stop-color="#fd5426" stop-opacity=".066"></stop>
            <stop offset=".374" stop-color="#fd5426" stop-opacity=".148"></stop>
            <stop offset=".503" stop-color="#fd5426" stop-opacity=".263"></stop>
            <stop offset=".633" stop-color="#fd5426" stop-opacity=".411"></stop>
            <stop offset=".764" stop-color="#fd5426" stop-opacity=".593"></stop>
            <stop offset=".893" stop-color="#fd5426" stop-opacity=".803"></stop>
            <stop offset="1" stop-color="#fd5426"></stop>
        </linearGradient>
        <linearGradient xlink:href="#b" id="i" x1="385.487" x2="332.734" y1="91.581" y2="79.462"
            gradientTransform="matrix(1 0 0 -1 0 514)" gradientUnits="userSpaceOnUse"></linearGradient>
        <linearGradient xlink:href="#b" id="j" x1="412.236" x2="408.671" y1="74.726" y2="154.567"
            gradientTransform="matrix(1 0 0 -1 0 514)" gradientUnits="userSpaceOnUse"></linearGradient>
        <linearGradient xlink:href="#b" id="k" x1="19.241" x2="19.241" y1="-46.523" y2="-141.343"
            gradientTransform="scale(1 -1) rotate(65.48 497.527 69.872)" gradientUnits="userSpaceOnUse">
        </linearGradient>
        <linearGradient xlink:href="#b" id="l" x1="24.562" x2="101.701" y1="-53.329" y2="-53.329"
            gradientTransform="scale(1 -1) rotate(65.48 497.527 69.872)" gradientUnits="userSpaceOnUse">
        </linearGradient>
        <linearGradient xlink:href="#b" id="m" x1="18.423" x2="93.323" y1="-52.514" y2="-127.414"
            gradientTransform="scale(1 -1) rotate(65.48 497.527 69.872)" gradientUnits="userSpaceOnUse">
        </linearGradient>
        <linearGradient id="c">
            <stop offset="0" stop-color="#fac600" stop-opacity="0"></stop>
            <stop offset=".122" stop-color="#fac600" stop-opacity=".017"></stop>
            <stop offset=".248" stop-color="#fac600" stop-opacity=".067"></stop>
            <stop offset=".376" stop-color="#fac600" stop-opacity=".15"></stop>
            <stop offset=".506" stop-color="#fac600" stop-opacity=".266"></stop>
            <stop offset=".637" stop-color="#fac600" stop-opacity=".416"></stop>
            <stop offset=".769" stop-color="#fac600" stop-opacity=".6"></stop>
            <stop offset=".899" stop-color="#fac600" stop-opacity=".813"></stop>
            <stop offset="1" stop-color="#fac600"></stop>
        </linearGradient>
        <linearGradient xlink:href="#c" id="n" x1="31.782" x2="55.961" y1="-84.268" y2="-143.96"
            gradientTransform="scale(1 -1) rotate(65.48 497.527 69.872)" gradientUnits="userSpaceOnUse">
        </linearGradient>
        <linearGradient id="d">
            <stop offset="0" stop-color="#78a91f"></stop>
            <stop offset=".178" stop-color="#73a720"></stop>
            <stop offset=".363" stop-color="#67a225"></stop>
            <stop offset=".551" stop-color="#529a2d"></stop>
            <stop offset=".741" stop-color="#358f39"></stop>
            <stop offset=".93" stop-color="#108147"></stop>
            <stop offset="1" stop-color="#017b4e"></stop>
        </linearGradient>
        <linearGradient xlink:href="#d" id="o" x1="3172.975" x2="3249.888" y1="4576.075" y2="4571.127"
            gradientTransform="matrix(.787 .617 1.028 -1.311 -6819.815 4277.536)" gradientUnits="userSpaceOnUse">
        </linearGradient>
        <linearGradient id="e">
            <stop offset="0" stop-color="#3e5959" stop-opacity="0"></stop>
            <stop offset=".207" stop-color="#3e5959" stop-opacity=".047"></stop>
            <stop offset=".421" stop-color="#3e5959" stop-opacity=".187"></stop>
            <stop offset=".639" stop-color="#3e5959" stop-opacity=".419"></stop>
            <stop offset=".858" stop-color="#3e5959" stop-opacity=".743"></stop>
            <stop offset="1" stop-color="#3e5959"></stop>
        </linearGradient>
        <linearGradient xlink:href="#e" id="p" x1="3249.28" x2="3183.612" y1="4581.509" y2="4565.317"
            gradientTransform="matrix(.787 .617 1.028 -1.311 -6819.815 4277.536)" gradientUnits="userSpaceOnUse">
        </linearGradient>
        <linearGradient xlink:href="#d" id="q" x1="2973.253" x2="3050.166" y1="4547.066" y2="4542.119"
            gradientTransform="matrix(.989 .147 .244 -1.648 -3777.467 7226.789)" gradientUnits="userSpaceOnUse">
        </linearGradient>
        <linearGradient xlink:href="#e" id="r" x1="3049.558" x2="2983.889" y1="4552.501" y2="4536.308"
            gradientTransform="matrix(.989 .147 .244 -1.648 -3777.467 7226.789)" gradientUnits="userSpaceOnUse">
        </linearGradient>
        <linearGradient xlink:href="#a" id="s" x1="36.019" x2="143.662" y1="191.22" y2="231.854"
            gradientTransform="matrix(1 0 0 -1 0 514)" gradientUnits="userSpaceOnUse"></linearGradient>
        <linearGradient xlink:href="#b" id="t" x1="106.314" x2="128.413" y1="191.742" y2="236.653"
            gradientTransform="matrix(1 0 0 -1 0 514)" gradientUnits="userSpaceOnUse"></linearGradient>
        <linearGradient xlink:href="#b" id="u" x1="13.942" x2="13.942" y1="268.954" y2="174.134"
            gradientTransform="scale(1 -1) rotate(65.48 497.527 69.872)" gradientUnits="userSpaceOnUse">
        </linearGradient>
        <linearGradient xlink:href="#b" id="v" x1="19.262" x2="96.402" y1="262.148" y2="262.148"
            gradientTransform="scale(1 -1) rotate(65.48 497.527 69.872)" gradientUnits="userSpaceOnUse">
        </linearGradient>
        <linearGradient xlink:href="#b" id="w" x1="13.123" x2="88.024" y1="262.963" y2="188.063"
            gradientTransform="scale(1 -1) rotate(65.48 497.527 69.872)" gradientUnits="userSpaceOnUse">
        </linearGradient>
        <linearGradient xlink:href="#c" id="x" x1="26.483" x2="50.662" y1="231.209" y2="171.517"
            gradientTransform="scale(1 -1) rotate(65.48 497.527 69.872)" gradientUnits="userSpaceOnUse">
        </linearGradient>
        <linearGradient xlink:href="#d" id="y" x1="2855.523" x2="2932.436" y1="4509.639" y2="4504.691"
            gradientTransform="matrix(-.353 .936 -1.559 -.589 8190.09 192.642)" gradientUnits="userSpaceOnUse">
        </linearGradient>
        <linearGradient xlink:href="#e" id="z" x1="2931.828" x2="2866.159" y1="4515.073" y2="4498.88"
            gradientTransform="matrix(-.353 .936 -1.559 -.589 8190.09 192.642)" gradientUnits="userSpaceOnUse">
        </linearGradient>
        <linearGradient xlink:href="#d" id="A" x1="3000.489" x2="3077.402" y1="4477.916" y2="4472.968"
            gradientTransform="matrix(-.094 .996 -1.331 -.126 6442.212 -2062.554)" gradientUnits="userSpaceOnUse">
        </linearGradient>
        <linearGradient xlink:href="#e" id="B" x1="3076.795" x2="3011.127" y1="4483.349" y2="4467.157"
            gradientTransform="matrix(-.094 .996 -1.331 -.126 6442.212 -2062.554)" gradientUnits="userSpaceOnUse">
        </linearGradient>
        <linearGradient xlink:href="#d" id="C" x1="2777.982" x2="2854.895" y1="4570.32" y2="4565.372"
            gradientTransform="matrix(.79 -.613 -1.021 -1.316 2673.125 7864.721)" gradientUnits="userSpaceOnUse">
        </linearGradient>
        <linearGradient xlink:href="#e" id="D" x1="2854.287" x2="2788.619" y1="4575.754" y2="4559.562"
            gradientTransform="matrix(.79 -.613 -1.021 -1.316 2673.125 7864.721)" gradientUnits="userSpaceOnUse">
        </linearGradient>
        <linearGradient id="f">
            <stop offset="0" stop-color="#fdd79b"></stop>
            <stop offset=".236" stop-color="#f9d396"></stop>
            <stop offset=".48" stop-color="#f0c88a"></stop>
            <stop offset=".729" stop-color="#e0b775"></stop>
            <stop offset=".979" stop-color="#cb9e58"></stop>
            <stop offset="1" stop-color="#c99c56"></stop>
        </linearGradient>
        <linearGradient xlink:href="#f" id="E" x1="256.279" x2="333.088" y1="182.646" y2="178.673"
            gradientTransform="matrix(1 0 0 -1 0 514)" gradientUnits="userSpaceOnUse"></linearGradient>
        <linearGradient id="g">
            <stop offset="0" stop-color="#b27a49" stop-opacity="0"></stop>
            <stop offset=".145" stop-color="#b27a49" stop-opacity=".023"></stop>
            <stop offset=".295" stop-color="#b27a49" stop-opacity=".093"></stop>
            <stop offset=".448" stop-color="#b27a49" stop-opacity=".21"></stop>
            <stop offset=".602" stop-color="#b27a49" stop-opacity=".373"></stop>
            <stop offset=".758" stop-color="#b27a49" stop-opacity=".584"></stop>
            <stop offset=".913" stop-color="#b27a49" stop-opacity=".837"></stop>
            <stop offset="1" stop-color="#b27a49"></stop>
        </linearGradient>
        <linearGradient xlink:href="#g" id="F" x1="301.287" x2="295.023" y1="142.196" y2="130.921"
            gradientTransform="matrix(1 0 0 -1 0 514)" gradientUnits="userSpaceOnUse"></linearGradient>
        <linearGradient xlink:href="#g" id="G" x1="317.365" x2="317.991" y1="206.009" y2="229.186"
            gradientTransform="matrix(1 0 0 -1 0 514)" gradientUnits="userSpaceOnUse"></linearGradient>
        <linearGradient xlink:href="#f" id="H" x1="263.744" x2="333.484" y1="188.102" y2="197.29"
            gradientTransform="matrix(1 0 0 -1 0 514)" gradientUnits="userSpaceOnUse"></linearGradient>
        <linearGradient xlink:href="#g" id="I" x1="326.19" x2="337.466" y1="136.511" y2="128.994"
            gradientTransform="matrix(1 0 0 -1 0 514)" gradientUnits="userSpaceOnUse"></linearGradient>
        <linearGradient xlink:href="#g" id="J" x1="253.53" x2="244.447" y1="249.668" y2="261.883"
            gradientTransform="matrix(1 0 0 -1 0 514)" gradientUnits="userSpaceOnUse"></linearGradient>
        <linearGradient xlink:href="#f" id="K" x1="128.014" x2="159.951" y1="65.994" y2="64.342"
            gradientTransform="scale(1 -1) rotate(4.88 6250.577 1936.532)" gradientUnits="userSpaceOnUse">
        </linearGradient>
        <linearGradient xlink:href="#a" id="L" x1="26.463" x2="132.011" y1="352.646" y2="247.098"
            gradientTransform="scale(1 -1) rotate(36.01 884.163 257.336)" gradientUnits="userSpaceOnUse">
        </linearGradient>
        <linearGradient xlink:href="#b" id="M" x1="73.374" x2="73.374" y1="312.541" y2="217.722"
            gradientTransform="scale(1 -1) rotate(36.01 884.163 257.336)" gradientUnits="userSpaceOnUse">
        </linearGradient>
        <linearGradient xlink:href="#b" id="N" x1="78.694" x2="155.834" y1="305.736" y2="305.736"
            gradientTransform="scale(1 -1) rotate(36.01 884.163 257.336)" gradientUnits="userSpaceOnUse">
        </linearGradient>
        <linearGradient xlink:href="#b" id="O" x1="72.555" x2="147.456" y1="306.551" y2="231.65"
            gradientTransform="scale(1 -1) rotate(36.01 884.163 257.336)" gradientUnits="userSpaceOnUse">
        </linearGradient>
        <linearGradient xlink:href="#c" id="P" x1="85.915" x2="110.094" y1="274.796" y2="215.104"
            gradientTransform="scale(1 -1) rotate(36.01 884.163 257.336)" gradientUnits="userSpaceOnUse">
        </linearGradient>
        <linearGradient xlink:href="#a" id="Q" x1="275.124" x2="380.672" y1="358.036" y2="252.488"
            gradientTransform="matrix(1 0 0 -1 0 514)" gradientUnits="userSpaceOnUse"></linearGradient>
        <linearGradient xlink:href="#b" id="R" x1="322.034" x2="322.034" y1="317.931" y2="223.112"
            gradientTransform="matrix(1 0 0 -1 0 514)" gradientUnits="userSpaceOnUse"></linearGradient>
        <linearGradient xlink:href="#b" id="S" x1="327.355" x2="404.494" y1="311.126" y2="311.126"
            gradientTransform="matrix(1 0 0 -1 0 514)" gradientUnits="userSpaceOnUse"></linearGradient>
        <linearGradient xlink:href="#b" id="T" x1="321.216" x2="396.116" y1="311.941" y2="237.04"
            gradientTransform="matrix(1 0 0 -1 0 514)" gradientUnits="userSpaceOnUse"></linearGradient>
        <linearGradient xlink:href="#c" id="U" x1="334.575" x2="358.754" y1="280.186" y2="220.494"
            gradientTransform="matrix(1 0 0 -1 0 514)" gradientUnits="userSpaceOnUse"></linearGradient>
        <linearGradient xlink:href="#a" id="V" x1="148.018" x2="253.566" y1="181.508" y2="75.96"
            gradientTransform="rotate(122.2 146.807 250.435)" gradientUnits="userSpaceOnUse"></linearGradient>
        <linearGradient xlink:href="#b" id="W" x1="194.929" x2="194.929" y1="141.404" y2="46.584"
            gradientTransform="rotate(122.2 146.807 250.435)" gradientUnits="userSpaceOnUse"></linearGradient>
        <linearGradient xlink:href="#b" id="X" x1="200.249" x2="277.389" y1="134.598" y2="134.598"
            gradientTransform="rotate(122.2 146.807 250.435)" gradientUnits="userSpaceOnUse"></linearGradient>
        <linearGradient xlink:href="#b" id="Y" x1="194.11" x2="269.011" y1="135.413" y2="60.513"
            gradientTransform="rotate(122.2 146.807 250.435)" gradientUnits="userSpaceOnUse"></linearGradient>
        <linearGradient xlink:href="#c" id="Z" x1="207.47" x2="231.649" y1="103.658" y2="43.966"
            gradientTransform="rotate(122.2 146.807 250.435)" gradientUnits="userSpaceOnUse"></linearGradient>
        <linearGradient xlink:href="#a" id="aa" x1="438.912" x2="544.46" y1="328.995" y2="223.447"
            gradientTransform="scale(1 -1) rotate(-44.03 -288.334 81.738)" gradientUnits="userSpaceOnUse">
        </linearGradient>
        <linearGradient xlink:href="#b" id="ab" x1="485.823" x2="485.823" y1="288.89" y2="194.07"
            gradientTransform="scale(1 -1) rotate(-44.03 -288.334 81.738)" gradientUnits="userSpaceOnUse">
        </linearGradient>
        <linearGradient xlink:href="#b" id="ac" x1="491.143" x2="568.283" y1="282.084" y2="282.084"
            gradientTransform="scale(1 -1) rotate(-44.03 -288.334 81.738)" gradientUnits="userSpaceOnUse">
        </linearGradient>
        <linearGradient xlink:href="#b" id="ad" x1="485.004" x2="559.905" y1="282.899" y2="207.999"
            gradientTransform="scale(1 -1) rotate(-44.03 -288.334 81.738)" gradientUnits="userSpaceOnUse">
        </linearGradient>
        <linearGradient xlink:href="#c" id="ae" x1="498.364" x2="522.543" y1="251.145" y2="191.453"
            gradientTransform="scale(1 -1) rotate(-44.03 -288.334 81.738)" gradientUnits="userSpaceOnUse">
        </linearGradient>
        <path fill="url(#h)"
            d="M332.8 380.7c16.9-36.9 65.6-50.9 109-31.1s64.7 65.7 47.9 102.7c-16.9 36.9-65.6 50.9-109 31.1-43.3-19.8-64.8-65.8-47.9-102.7z"
            opacity="1" data-original="url(#h)"></path>
        <path fill="url(#i)"
            d="M332.8 380.7c16.9-36.9 65.6-50.9 109-31.1s64.7 65.7 47.9 102.7c-16.9 36.9-65.6 50.9-109 31.1-43.3-19.8-64.8-65.8-47.9-102.7z"
            opacity="1" data-original="url(#i)"></path>
        <path fill="url(#j)"
            d="M332.8 380.7c16.9-36.9 65.6-50.9 109-31.1s64.7 65.7 47.9 102.7c-16.9 36.9-65.6 50.9-109 31.1-43.3-19.8-64.8-65.8-47.9-102.7z"
            opacity="1" data-original="url(#j)"></path>
        <path fill="url(#k)"
            d="M380.7 483.4c43.3 19.8 92.1 5.9 109-31.1 16.9-36.9-4.6-82.9-47.9-102.7-7.9-3.6-16-6.1-24-7.5l-58.5 128.1c6.3 5.1 13.5 9.6 21.4 13.2z"
            opacity="1" data-original="url(#k)"></path>
        <path fill="url(#l)"
            d="M332.8 380.7c-3 6.6-4.8 13.4-5.4 20.4l150.4 68.7c4.8-5.1 8.8-10.9 11.8-17.5 16.9-36.9-4.6-82.9-47.9-102.7-43.3-19.7-92-5.8-108.9 31.1z"
            opacity="1" data-original="url(#l)"></path>
        <path fill="url(#m)"
            d="M347.1 360.8 408 491.4c34.9 5 68.3-9.8 81.7-39.1 16.9-36.9-4.6-82.9-47.9-102.7-34.4-15.7-72.1-10.1-94.7 11.2z"
            opacity="1" data-original="url(#m)"></path>
        <path fill="url(#n)"
            d="M347.1 360.8 408 491.4c34.9 5 68.3-9.8 81.7-39.1 16.9-36.9-4.6-82.9-47.9-102.7-34.4-15.7-72.1-10.1-94.7 11.2z"
            opacity="1" data-original="url(#n)"></path>
        <path fill="url(#o)"
            d="M400.8 220.6c-40.3 51.4-68.5 105.5-83 154.2-2 6.6 2.5 10.1 8.5 6.6 43.8-25.7 89.6-66 129.9-117.4 18.5-23.6 34.5-47.8 47.8-71.8 23.7-42.9-8.8-68.4-44.8-35.1-20.2 18.6-39.9 39.9-58.4 63.5z"
            opacity="1" data-original="url(#o)"></path>
        <path fill="url(#p)"
            d="M326.3 381.4c43.8-25.7 89.6-66 129.9-117.4 18.5-23.6 34.5-47.8 47.8-71.8 11.9-21.5 9.7-38.6 0-46.1L319.1 381.9c1.6 1.3 4.2 1.3 7.2-.5z"
            opacity="1" data-original="url(#p)" class=""></path>
        <path fill="url(#q)"
            d="M284.3 146.5c-9.6 64.6-7.3 125.5 4.2 175 1.6 6.7 7.2 7.6 10.6 1.6 25.4-44 45.2-101.7 54.7-166.3 4.4-29.7 6.3-58.6 5.9-86.1-.6-49-41.5-55.1-56.3-8.3-8.1 26.2-14.7 54.4-19.1 84.1z"
            opacity="1" data-original="url(#q)" class=""></path>
        <path fill="url(#r)"
            d="M299.1 323.1c25.4-44 45.2-101.7 54.7-166.3 4.4-29.7 6.3-58.6 5.9-86.1-.3-24.5-10.7-38.3-22.8-40.1L293 327c2.1.4 4.4-.9 6.1-3.9z"
            opacity="1" data-original="url(#r)"></path>
        <path fill="url(#s)"
            d="M43.6 254.5c16.9-36.9 65.6-50.9 109-31.1s64.7 65.7 47.9 102.7-65.6 50.9-109 31.1c-43.3-19.8-64.7-65.8-47.9-102.7z"
            opacity="1" data-original="url(#s)"></path>
        <path fill="url(#t)"
            d="M43.6 254.5c16.9-36.9 65.6-50.9 109-31.1s64.7 65.7 47.9 102.7-65.6 50.9-109 31.1c-43.3-19.8-64.7-65.8-47.9-102.7z"
            opacity="1" data-original="url(#t)"></path>
        <path fill="url(#u)"
            d="M91.5 357.2c43.3 19.8 92.1 5.9 109-31.1 16.9-36.9-4.6-82.9-47.9-102.7-7.9-3.6-16-6.1-24-7.5L70.1 344c6.3 5.1 13.5 9.6 21.4 13.2z"
            opacity="1" data-original="url(#u)"></path>
        <path fill="url(#v)"
            d="M43.6 254.5c-3 6.6-4.8 13.4-5.4 20.4l150.4 68.7c4.8-5.1 8.8-10.9 11.8-17.5 16.9-36.9-4.6-82.9-47.9-102.7-43.2-19.7-92-5.8-108.9 31.1z"
            opacity="1" data-original="url(#v)"></path>
        <path fill="url(#w)"
            d="m57.9 234.6 60.9 130.6c34.9 5 68.3-9.8 81.7-39.1 16.9-36.9-4.6-82.9-47.9-102.7-34.4-15.6-72.1-10.1-94.7 11.2z"
            opacity="1" data-original="url(#w)"></path>
        <path fill="url(#x)"
            d="m57.9 234.6 60.9 130.6c34.9 5 68.3-9.8 81.7-39.1 16.9-36.9-4.6-82.9-47.9-102.7-34.4-15.6-72.1-10.1-94.7 11.2z"
            opacity="1" data-original="url(#x)"></path>
        <path fill="url(#y)"
            d="M128.1 208.9c61.1 23.1 113.3 54.7 150.9 88.8 5.1 4.6 3.1 10-3.8 10.1-50.8.7-110.8-10-171.9-33.1-28.1-10.6-54.3-23-78.1-36.7-42.5-24.4-28-63 20.1-53.2 26.8 5.5 54.7 13.5 82.8 24.1z"
            opacity="1" data-original="url(#y)"></path>
        <path fill="url(#z)"
            d="M275.2 307.8c-50.8.7-110.8-10-171.9-33.1-28.1-10.6-54.3-23-78.1-36.7-21.3-12.2-28.3-28-23.9-39.4l280.3 105.8c-.8 2-3 3.4-6.4 3.4z"
            opacity="1" data-original="url(#z)"></path>
        <path fill="url(#A)"
            d="M181.2 367.8c52.2 4.9 99 20.5 135 42.7 4.9 3 4.4 8.7-1 10.7-39.5 15-88.5 21.6-140.6 16.6-24-2.3-46.9-6.8-68.1-13.2-37.9-11.4-34.1-52.5 5.3-56.6 22.1-2.3 45.4-2.5 69.4-.2z"
            opacity="1" data-original="url(#A)"></path>
        <path fill="url(#B)"
            d="M315.2 421.2c-39.5 15-88.5 21.6-140.6 16.6-24-2.3-46.9-6.8-68.1-13.2-19-5.7-27.5-18.8-26.3-31.1l239.4 22.6c-.2 2.1-1.7 4.1-4.4 5.1z"
            opacity="1" data-original="url(#B)"></path>
        <path fill="url(#C)"
            d="M192 122.9c40 51.6 85.6 92.1 129.3 118 5.9 3.5 10.4 0 8.5-6.6-14.2-48.8-42.2-103-82.2-154.6-18.4-23.7-38-45.1-58-63.8-35.8-33.5-68.5-8.2-44.9 34.9 13 24.1 28.9 48.3 47.3 72.1z"
            opacity="1" data-original="url(#C)"></path>
        <path fill="url(#D)"
            d="M329.8 234.3c-14.2-48.8-42.2-103-82.2-154.6-18.4-23.7-38-45.1-58-63.8-17.9-16.7-35-18.8-44.7-11.3l183.7 236.7c1.5-1.1 2.1-3.7 1.2-7z"
            opacity="1" data-original="url(#D)"></path>
        <path fill="url(#E)"
            d="m328.6 421.3-10.8-19.1c-16.8-29.6-62.7-38.9-63.2-39l1.8-9.5c1.8.3 37.3 7.5 59.5 30.2-2.5-34.7-7.3-114-1.2-135.8l9.3 2.6c-7.2 25.8 2.6 147.4 2.7 148.6z"
            opacity="1" data-original="url(#E)"></path>
        <path fill="url(#F)"
            d="m328.6 421.3-1.8-21.9c0-.2-.3-3.5-.7-8.9l-10.3-8.8c.1.8.1 1.5.2 2.2-22.2-22.7-57.8-29.9-59.5-30.2l-1.8 9.5c.5.1 46.4 9.4 63.2 39z"
            opacity="1" data-original="url(#F)"></path>
        <path fill="url(#G)" d="M322.6 259.4h-9.7c-1.8 18.3-1.1 48.8.2 76.8h9.7c-1.3-28.6-2.1-59.6-.2-76.8z" opacity="1"
            data-original="url(#G)"></path>
        <path fill="url(#H)"
            d="m321.5 418-4.1-17c-21.3-88.1-90.3-163.4-91-164.2l7.1-6.6c.7.8 18.1 19.6 38.4 49.8 17 25.3 38.9 63.2 51.4 105.4 5.3-9.8 14.8-23.2 30.5-34.1l5.5 8c-24.5 16.9-32.4 41.7-32.5 41.9z"
            opacity="1" data-original="url(#H)"></path>
        <path fill="url(#I)"
            d="M323.2 385.4c-3.3-11.2-7.3-22.1-11.7-32.6H301c6.6 15.3 12.4 31.5 16.4 48.1l4.1 17 5.2-16.7c.1-.2 8-25 32.5-41.9l-4.5-6.5h-3.1c-14.4 10.6-23.4 23.3-28.4 32.6z"
            opacity="1" data-original="url(#I)"></path>
        <path fill="url(#J)"
            d="M271.8 280c-20.3-30.2-37.6-49-38.4-49.8l-7.1 6.6c.4.4 24.3 26.5 48.2 65.6h11.3c-4.8-8.2-9.6-15.7-14-22.4z"
            opacity="1" data-original="url(#J)"></path>
        <path fill="url(#K)"
            d="M314 494.5c-1.7 7 2.6 14.1 9.5 16.2l.9.3c7.5 2.2 15.3-2.3 17.2-9.8 5.7-22.6 6.1-46.2 3.1-69.5-1.7-12.9-4.4-25.8-7.9-38.4-1.8-6.6-8.2-11-15-10.4-8.9.8-15 9.5-12.6 18.1 8.6 31.1 12.1 63.6 4.8 93.5z"
            opacity="1" data-original="url(#K)"></path>
        <path fill="url(#L)"
            d="M149.2 110.5c32.8-23.9 82.2-12 110.2 26.5s24.1 89.1-8.8 113-82.2 12-110.2-26.5-24.1-89.1 8.8-113z"
            opacity="1" data-original="url(#L)"></path>
        <path fill="url(#M)"
            d="M140.4 223.5c28 38.5 77.3 50.4 110.2 26.5 32.8-23.9 36.8-74.4 8.8-113-5.1-7-10.9-13.1-17.2-18.3l-113.9 82.8c3 7.6 7 15 12.1 22z"
            opacity="1" data-original="url(#M)"></path>
        <path fill="url(#N)"
            d="M149.2 110.5c-5.8 4.2-10.8 9.4-14.8 15.1l97.2 133.8c6.7-2 13-5.1 18.9-9.4 32.8-23.9 36.8-74.4 8.8-113-28-38.5-77.3-50.3-110.1-26.5z"
            opacity="1" data-original="url(#N)"></path>
        <path fill="url(#O)"
            d="m171.4 100.2-11.2 143.7c27.9 21.5 64.3 25 90.3 6.1 32.8-23.9 36.8-74.4 8.8-113-22.2-30.5-57.8-44.3-87.9-36.8z"
            opacity="1" data-original="url(#O)"></path>
        <path fill="url(#P)"
            d="m171.4 100.2-11.2 143.7c27.9 21.5 64.3 25 90.3 6.1 32.8-23.9 36.8-74.4 8.8-113-22.2-30.5-57.8-44.3-87.9-36.8z"
            opacity="1" data-original="url(#P)"></path>
        <ellipse cx="322" cy="202.9" fill="url(#Q)" rx="73.5" ry="86.2" opacity="1" data-original="url(#Q)"></ellipse>
        <path fill="url(#R)"
            d="M248.5 202.9c0 47.6 32.9 86.2 73.5 86.2s73.5-38.6 73.5-86.2c0-8.7-1.1-17.1-3.1-25H251.7c-2.1 7.9-3.2 16.3-3.2 25z"
            opacity="1" data-original="url(#R)"></path>
        <path fill="url(#S)"
            d="M322 116.7c-7.2 0-14.2 1.2-20.8 3.5v165.4c6.6 2.3 13.6 3.5 20.8 3.5 40.6 0 73.5-38.6 73.5-86.2.1-47.6-32.9-86.2-73.5-86.2z"
            opacity="1" data-original="url(#S)"></path>
        <path fill="url(#T)"
            d="M346.1 121.4 252.5 231c10 33.8 37.3 58 69.5 58 40.6 0 73.5-38.6 73.5-86.2.1-37.7-20.6-69.7-49.4-81.4z"
            opacity="1" data-original="url(#T)"></path>
        <path fill="url(#U)"
            d="M346.1 121.4 252.5 231c10 33.8 37.3 58 69.5 58 40.6 0 73.5-38.6 73.5-86.2.1-37.7-20.6-69.7-49.4-81.4z"
            opacity="1" data-original="url(#U)"></path>
        <path fill="url(#V)"
            d="M146.2 306.9c21.7-34.3 71.9-41.6 112.1-16.2s55.4 73.8 33.7 108.2-71.9 41.6-112.1 16.2-55.4-73.9-33.7-108.2z"
            opacity="1" data-original="url(#V)"></path>
        <path fill="url(#W)"
            d="M258.3 290.6c40.3 25.4 55.4 73.8 33.7 108.2-21.7 34.3-71.9 41.6-112.1 16.2-7.3-4.6-13.8-10-19.4-16l75-119c7.8 2.5 15.5 6 22.8 10.6z"
            opacity="1" data-original="url(#W)"></path>
        <path fill="url(#X)"
            d="M146.2 306.9c3.9-6.1 8.6-11.4 14.1-15.7l139.9 88.2c-1.6 6.8-4.3 13.4-8.1 19.5-21.7 34.3-71.9 41.6-112.1 16.2-40.4-25.5-55.5-73.9-33.8-108.2z"
            opacity="1" data-original="url(#X)"></path>
        <path fill="url(#Y)"
            d="M137.4 329.7 280 309.1c23.3 26.4 29.2 62.5 12 89.7-21.7 34.3-71.9 41.6-112.1 16.2-31.9-20.1-48-54.7-42.5-85.3z"
            opacity="1" data-original="url(#Y)"></path>
        <path fill="url(#Z)"
            d="M137.4 329.7 280 309.1c23.3 26.4 29.2 62.5 12 89.7-21.7 34.3-71.9 41.6-112.1 16.2-31.9-20.1-48-54.7-42.5-85.3z"
            opacity="1" data-original="url(#Z)"></path>
        <path fill="url(#aa)"
            d="M354.6 261.3c33.1-34.2 83.6-39.1 112.8-10.8 29.2 28.2 26 78.9-7.1 113.1s-83.6 39.1-112.8 10.8c-29.1-28.2-26-78.9 7.1-113.1z"
            opacity="1" data-original="url(#aa)"></path>
        <path fill="url(#ab)"
            d="M354.6 261.3c-33.1 34.2-36.3 84.8-7.1 113.1 29.2 28.2 79.7 23.4 112.8-10.8 6-6.2 11.1-13 15.1-20.1l-101.2-97.9c-6.9 4.2-13.5 9.5-19.6 15.7z"
            opacity="1" data-original="url(#ab)"></path>
        <path fill="url(#ac)"
            d="M467.4 250.5c-5.2-5-11.1-9-17.4-11.9L335 357.4c3.2 6.2 7.3 12 12.5 17 29.2 28.2 79.7 23.4 112.8-10.8 33.1-34.3 36.3-84.9 7.1-113.1z"
            opacity="1" data-original="url(#ac)"></path>
        <path fill="url(#ad)"
            d="M481.4 270.6 338 284.4c-16.3 31.2-13.5 67.6 9.6 90 29.2 28.2 79.7 23.4 112.8-10.8 26.2-27.2 33.6-64.6 21-93z"
            opacity="1" data-original="url(#ad)"></path>
        <path fill="url(#ae)"
            d="M481.4 270.6 338 284.4c-16.3 31.2-13.5 67.6 9.6 90 29.2 28.2 79.7 23.4 112.8-10.8 26.2-27.2 33.6-64.6 21-93z"
            opacity="1" data-original="url(#ae)"></path>
    </g>
</svg>