<svg xmlns="http://www.w3.org/2000/svg" version="1.1" xmlns:xlink="http://www.w3.org/1999/xlink" width="512"
    height="512" x="0" y="0" viewBox="0 0 64 64" style="enable-background:new 0 0 512 512" xml:space="preserve"
    class="">
    <g transform="matrix(1.03,0,0,1.03,-0.959882930517189,4.039999999999999)">
        <path fill="#cad17c"
            d="M24 55c-.55 0-1-.45-1-1 0-17.37-8.66-27.23-8.74-27.33-.37-.41-.33-1.04.08-1.41s1.04-.33 1.41.07c.38.42 9.26 10.49 9.26 28.67 0 .55-.45 1-1 1zM39 59c-.55 0-1-.45-1-1 0-30.07 8.91-39.33 9.29-39.71a.996.996 0 1 1 1.41 1.41c-.11.11-8.71 9.24-8.71 38.3 0 .55-.45 1-1 1z"
            opacity="1" data-original="#cad17c"></path>
        <g fill="#fad4af">
            <path
                d="M60.69 21.59c-1.47-.85-8.9-3.02-10.03-1.06s4.46 7.3 5.93 8.15 3.58-.05 4.71-2.01.86-4.23-.61-5.08zM52 31c0-1.66-1.79-9-4-9s-4 7.34-4 9 1.79 3 4 3 4-1.34 4-3zM56.59 9.32c-1.47.85-7.06 6.19-5.93 8.15s8.56-.21 10.03-1.06 1.74-3.12.61-5.08-3.24-2.86-4.71-2.01zM39.4 28.68c1.47-.85 7.06-6.19 5.93-8.15s-8.56.21-10.03 1.06-1.74 3.12-.61 5.08 3.24 2.86 4.71 2.01z"
                fill="#fad4af" opacity="1" data-original="#fad4af"></path>
        </g>
        <path fill="#fbddbf"
            d="M45.35 21.89c-2.38-.64-7.81 1-9.04 1.7-1.14.66-1.56 2.18-1.16 3.74-.16-.2-.31-.42-.45-.66-1.13-1.96-.86-4.23.61-5.08 1.47-.84 8.9-3.01 10.03-1.06.21.36.19.83 0 1.36zM61.85 12.67c-1.18-1.49-2.97-2.1-4.26-1.35-1.2.69-5.16 4.39-5.94 6.79-.46-.12-.81-.33-.99-.64-1.13-1.96 4.46-7.3 5.93-8.15s3.58.05 4.71 2.01c.25.44.44.89.55 1.34z"
            opacity="1" data-original="#fbddbf"></path>
        <path fill="#cad17c"
            d="M63 60v-8c-2 0-4 4-4 4-1-5-6-6-6-6 2 1 2 6 2 6-3-1-3-3-3-3-1 3-5 3-5 3-1-3 2-7 2-7-5 2-8 8-8 8 0-2 1-5 1-5-3 1-4 4-4 4 0-7-6-9-6-9 4 5 1 11 1 11-4-2-1-6-1-6-4 1-5 5-5 5 1-5-1-8-1-8 0 2-2 4-2 4-1-3-4-4-4-4 3 5 0 8 0 8-2-2-1-5-1-5-3 0-4 3-4 3-2-2-1-5-1-5-4 1-4 7-4 7 0-8-5-9-5-9 3 4 1 8 1 8-2-1-2-4-2-4s-3 1-3 4v4z"
            opacity="1" data-original="#cad17c"></path>
        <g fill="#d5da96">
            <path
                d="M4.19 53.39C3.3 53.92 2 55.02 2 57v3H1v-4c0-3 3-4 3-4s0 .62.19 1.39zM6 49c3 4 1 8 1 8-.53-.26-.92-.67-1.2-1.12.06.05.13.09.2.12 0 0 2-4-1-8 0 0 1.6.32 2.99 2.05C6.93 49.19 6 49 6 49zM14 50s-.21.64-.24 1.54C11 53.32 11 58 11 58c0-1.61-.2-2.94-.53-4.03.49-1.65 1.49-3.46 3.53-3.97zM19 52s-.16.48-.22 1.19C16.72 53.83 16 56 16 56c-.41-.41-.69-.86-.88-1.31C15.48 53.92 16.6 52 19 52zM21.01 50.01C24 55 21 58 21 58a4.12 4.12 0 0 1-.83-1.2c.59-.74 2.38-3.55-.17-7.8 0 0 1.73.58 2.99 2.17-.96-.8-1.87-1.13-1.98-1.16zM26.84 51.01C26.38 52.62 25 54 25 54c-.17-.51-.4-.97-.67-1.37.58-.67 1.67-2.15 1.67-3.63 0 0 .47.71.84 2.01zM32 52s-.57.76-.88 1.79c-2.26 1.41-3.01 3.81-3.11 4.16.25-1.28.31-2.43.25-3.43.76-1.02 1.95-2.07 3.74-2.52zM33 48c4 5 1 11 1 11-.78-.39-1.3-.86-1.62-1.36.18.12.39.25.62.36 0 0 3-6-1-11 0 0 2.03.68 3.72 2.63C34.32 48.44 33 48 33 48zM42 52s-.25.75-.5 1.75C39.66 55.03 39 57 39 57c0-.88-.09-1.68-.26-2.41.6-.92 1.64-2.05 3.26-2.59zM48.99 49.01c-.08.11-.75 1.03-1.33 2.28C44.08 53.84 42 58 42 58c0-1.09.3-2.47.56-3.5 1.36-1.89 3.56-4.34 6.43-5.49zM52.73 54.61C51.43 57 48 57 48 57c-.11-.35-.17-.71-.19-1.07 1.23-.17 3.47-.78 4.19-2.93 0 0 0 .78.73 1.61zM56 57c-1.4-.47-2.14-1.15-2.53-1.75.39.28.89.54 1.53.75 0 0 0-5-2-6 0 0 2.65.53 4.48 2.75-1.56-1.3-3.25-1.7-3.46-1.74C56 52.03 56 57 56 57zM63 52v1.3c-1.62.93-3 3.7-3 3.7-.13-.65-.33-1.24-.58-1.76.7-1.16 2.14-3.24 3.58-3.24z"
                fill="#d5da96" opacity="1" data-original="#d5da96"></path>
        </g>
        <g fill="#e7cee3">
            <path
                d="M19 14c0 1.66-1.79 9-4 9s-4-7.34-4-9 1.79-3 4-3 4 1.34 4 3zM6.4 16.32c1.47.85 7.06 6.19 5.93 8.15s-8.56-.21-10.03-1.06c-1.47-.85-1.74-3.12-.61-5.08s3.24-2.86 4.71-2.01zM2.31 28.59c1.47-.85 8.9-3.02 10.03-1.06s-4.46 7.3-5.93 8.15-3.58-.05-4.71-2.01-.86-4.23.61-5.08zM11 38c0-1.66 1.79-9 4-9s4 7.34 4 9-1.79 3-4 3-4-1.34-4-3zM23.59 35.68c-1.47-.85-7.06-6.19-5.93-8.15s8.56.21 10.03 1.06 1.74 3.12.61 5.08-3.24 2.86-4.71 2.01zM27.69 23.4c-1.47.85-8.9 3.02-10.03 1.06s4.46-7.3 5.93-8.15 3.58.05 4.71 2.01.86 4.23-.61 5.08z"
                fill="#e7cee3" opacity="1" data-original="#e7cee3" class=""></path>
        </g>
        <g fill="#ecd8e9">
            <path
                d="M19 14v.02c-.73-.63-1.8-1.02-3-1.02-2.21 0-4 1.34-4 3 0 .92.55 3.59 1.42 5.78C11.99 19.62 11 15.24 11 14c0-1.66 1.79-3 4-3s4 1.34 4 3zM12.43 23.37c-1.48-2.15-4.08-4.51-5.02-5.05-1.47-.85-3.58.05-4.71 2.01-.55.95-.77 1.98-.68 2.88-1.21-.97-1.37-3.06-.32-4.88 1.13-1.96 3.24-2.86 4.71-2.01 1.25.72 5.45 4.67 6.02 7.05zM12.35 28.89c-2.38-.64-7.81 1-9.04 1.7-1.14.66-1.56 2.18-1.16 3.74-.16-.2-.31-.42-.45-.66-1.13-1.96-.86-4.23.61-5.08 1.47-.84 8.9-3.01 10.03-1.06.21.36.19.83 0 1.36zM28.85 19.67c-1.18-1.49-2.97-2.1-4.26-1.35-1.2.69-5.16 4.39-5.94 6.79-.46-.12-.81-.33-.99-.64-1.13-1.96 4.46-7.3 5.93-8.15s3.58.05 4.71 2.01c.25.44.44.89.55 1.34z"
                fill="#ecd8e9" opacity="1" data-original="#ecd8e9" class=""></path>
        </g>
        <path fill="#fad4af"
            d="M44 7c0 1.66 1.79 9 4 9s4-7.34 4-9-1.79-3-4-3-4 1.34-4 3zM35.31 16.4c1.47.85 8.9 3.02 10.03 1.06s-4.46-7.3-5.93-8.15-3.58.05-4.71 2.01-.86 4.23.61 5.08z"
            opacity="1" data-original="#fad4af"></path>
        <circle cx="48" cy="19" r="4" fill="#fbf1d6" opacity="1" data-original="#fbf1d6"></circle>
        <path fill="#fbddbf"
            d="M52 7v.02C51.27 6.39 50.2 6 49 6c-2.21 0-4 1.34-4 3 0 .92.55 3.59 1.42 5.78C44.99 12.62 44 8.24 44 7c0-1.66 1.79-3 4-3s4 1.34 4 3zM45.43 16.37c-1.48-2.15-4.08-4.51-5.02-5.05-1.47-.85-3.58.05-4.71 2.01-.55.95-.77 1.98-.68 2.88-1.21-.97-1.37-3.06-.32-4.88 1.13-1.96 3.24-2.86 4.71-2.01 1.25.72 5.45 4.67 6.02 7.05z"
            opacity="1" data-original="#fbddbf"></path>
        <path fill="#fcf4de"
            d="M51.93 18.28A3.999 3.999 0 0 0 45 21c0 .25.02.49.07.72A4.011 4.011 0 0 1 44 19c0-2.21 1.79-4 4-4 1.96 0 3.59 1.41 3.93 3.28z"
            opacity="1" data-original="#fcf4de"></path>
        <circle cx="15" cy="26" r="4" fill="#fbf1d6" opacity="1" data-original="#fbf1d6"></circle>
        <path fill="#fcf4de"
            d="M18.93 25.28A3.999 3.999 0 0 0 12 28c0 .25.02.49.07.72A4.011 4.011 0 0 1 11 26c0-2.21 1.79-4 4-4 1.96 0 3.59 1.41 3.93 3.28z"
            opacity="1" data-original="#fcf4de"></path>
    </g>
</svg>