<svg xmlns="http://www.w3.org/2000/svg" version="1.1" xmlns:xlink="http://www.w3.org/1999/xlink" width="512"
    height="512" x="0" y="0" viewBox="0 0 128 128" style="enable-background:new 0 0 512 512" xml:space="preserve"
    class="">
    <g transform="matrix(1.1299999999999992,0,0,1.1299999999999992,-8.320015621185235,6.6800000000000495)">
        <path fill="#009959" d="M19.373 115.983h14.643s3.841-48.01-26.67-83.777c0 0 16.108 39.968 12.027 83.777z"
            opacity="1" data-original="#009959" class=""></path>
        <path fill="#007840" d="M62.439 115.983h16.98s4.454-55.673-30.926-97.149c0 0 18.678 46.347 13.946 97.149z"
            opacity="1" data-original="#007840"></path>
        <path fill="#009959"
            d="M76.539 115.983h16.98c-4.732-50.8 13.947-97.149 13.947-97.149-35.381 41.476-30.927 97.149-30.927 97.149z"
            opacity="1" data-original="#009959" class=""></path>
        <path fill="#10804c"
            d="M50.789 115.983h14.643c-4.081-43.809 12.026-83.777 12.026-83.777-30.51 35.767-26.669 83.777-26.669 83.777z"
            opacity="1" data-original="#10804c"></path>
        <path fill="#6fbf6b"
            d="M90.91 115.983h14.643c-4.081-43.809 12.027-83.777 12.027-83.777-30.51 35.767-26.67 83.777-26.67 83.777zM39.227 115.983h17.334s4.546-56.834-31.571-99.175c0 0 19.067 47.314 14.237 99.175z"
            opacity="1" data-original="#6fbf6b" class=""></path>
        <g fill="#a5e887">
            <path d="M27.92 115.983h16.028c-8.732-58.812 29.436-91.7 29.436-91.7-48.49 20.165-45.464 91.7-45.464 91.7z"
                fill="#a5e887" opacity="1" data-original="#a5e887" class=""></path>
            <path d="M69.066 12.017S112.34 49.3 102.44 115.983h18.172s3.431-81.104-51.546-103.966z" fill="#a5e887"
                opacity="1" data-original="#a5e887" class=""></path>
        </g>
    </g>
</svg>