<svg xmlns="http://www.w3.org/2000/svg" version="1.1" xmlns:xlink="http://www.w3.org/1999/xlink" width="33"
    height="33" x="0" y="0" viewBox="0 0 512 512" style="enable-background:new 0 0 512 512" xml:space="preserve"
    class="">
    <g>
        <path fill="#fe4b09"
            d="M256 498.9c-4.2 0-8.2-1.3-11.6-3.7C-63.1 276.8 3.8 120.1 11.1 105.4c19.6-44.9 49.6-73.9 88.9-86C162.7 0 230.2 30.5 256 44.3 281.8 30.5 349.3 0 412 19.4c39.3 12.1 69.2 41.1 88.9 86 7.2 14.7 74.2 171.4-233.3 389.8-3.4 2.4-7.4 3.7-11.6 3.7zM47 123.3c-1.3 2.6-15.8 34.6 1.5 90.3 16.6 53.2 66.1 137.5 207.4 240.5 141.4-103 190.9-187.3 207.4-240.5 17.3-55.7 2.8-87.7 1.5-90.3-.2-.4-.5-.9-.6-1.3-15-34.5-36-55.5-64.1-64.2C339.6 39.2 267.3 84 266.6 84.4c-6.5 4.1-14.9 4.1-21.4 0-.7-.4-73.4-45.3-133.6-26.6-28.1 8.7-49 29.7-64 64.1-.1.5-.4.9-.6 1.4z"
            opacity="1" data-original="#fe4b09"></path>
    </g>
</svg>