<svg xmlns="http://www.w3.org/2000/svg" version="1.1" xmlns:xlink="http://www.w3.org/1999/xlink" width="33"
    height="33" x="0" y="0" viewBox="0 0 512 512" style="enable-background:new 0 0 512 512" xml:space="preserve"
    class="">
    <g>
        <path
            d="M358.4 26.483c-39.396 0-75.211 14.958-102.4 39.342-27.189-24.384-63.004-39.342-102.4-39.342C68.769 26.483 0 95.252 0 180.083c0 105.71 114.759 233.71 256 305.435 141.241-71.724 256-199.724 256-305.434 0-84.832-68.769-153.601-153.6-153.601z"
            style="" fill="#ff5a4e" data-original="#ff5a4e" class=""></path>
        <path
            d="M105.931 206.667c0-78.593 42.967-145.25 102.792-169.88A152.143 152.143 0 0 0 153.6 26.483C68.769 26.483 0 95.252 0 180.083c0 105.71 114.759 233.71 256 305.435.116-.06.231-.122.348-.182-88.643-82.722-150.417-187.714-150.417-278.669z"
            style="" fill="#eb443f" data-original="#eb443f" class=""></path>
        <path
            d="M358.4 26.483c-3.357 0-6.646.256-9.948.47 66.596 4.84 119.41 71.443 119.41 153.13 0 105.71-94.973 233.71-211.862 305.435 141.241-71.724 256-199.724 256-305.434 0-84.832-68.769-153.601-153.6-153.601z"
            style="" fill="#ff7e68" data-original="#ff7e68" class=""></path>
        <circle cx="414.897" cy="167.724" r="26.483" style="" fill="#ff9a79" data-original="#ff9a79" class=""></circle>
        <circle cx="401.655" cy="110.345" r="13.241" style="" fill="#fff1ed" data-original="#ffbeac" class=""
            opacity="1"></circle>
    </g>
</svg>